
<svg id="a1" width="780" height="600" xmlns="http://www.w3.org/2000/svg">
 <g>
  <title>Layer 1</title>
  <path fill="#fff" stroke="#000" d="m630.80533,438.7955l-0.60292,-0.5l0.39707,0l0.60292,0.5l-0.60292,0.5l-0.39707,0l0.60292,-0.5z" id="svg_2"/>
  <path transform="rotate(-90 413.239 308.555)" stroke="#000" id="svg_1" d="m322.58516,549.63654c32.28175,-30.26411 59.67862,-66.31022 71.2505,-107.23636c-34.60555,23.62025 -66.34406,61.6119 -114.617,60.17264c-36.4431,1.87781 -79.85523,1.9096 -105.50819,-25.4545c-57.32714,-41.38686 -72.72685,-124.10605 -25.65234,-176.77665c32.21417,-38.03027 88.46693,-54.15621 140.0908,-48.45214c32.52712,-12.39081 -6.36197,-43.76546 -10.27283,-63.34651c-24.20891,-71.02802 32.82299,-156.22479 116.68384,-164.40711c60.14979,-7.75272 118.95116,27.20557 148.38332,72.57398c15.99431,31.74502 7.66064,67.77343 3.92907,100.70681c-12.56609,16.55026 -44.74933,56.58956 1.17724,53.43574c45.4084,-0.64512 93.36016,11.32315 123.30277,43.74162c43.79652,43.66123 47.81399,115.81177 3.75015,160.42545c-23.30846,27.174 -58.28481,48.92282 -97.87174,47.71197c-38.74645,3.51176 -80.70293,-4.03484 -108.17861,-30.5401c-11.71838,-7.37206 -40.43226,-35.22543 -40.42241,-29.11719c28.70041,53.68015 61.15422,109.42631 118.56801,142.69041c20.51349,14.80827 -31.24515,4.62745 -43.77508,7.64558c-75.91643,0.06023 -151.83262,0.12159 -227.74918,0.18216l46.91167,-43.9558zc-31.27457,29.30372 -15.63648,14.65219 0,0" fill="#B8D078"/>
 </g>

</svg>